<?xml version="1.0" encoding="UTF-8"?>
<svg version="1.1" xmlns="http://www.w3.org/2000/svg" width="200" height="200">
<path d="M0 0 C66 0 132 0 200 0 C200 66 200 132 200 200 C134 200 68 200 0 200 C0 134 0 68 0 0 Z " fill="#F9FAFA" transform="translate(0,0)"/>
<path d="M0 0 C0.99064453 -0.01224609 1.98128906 -0.02449219 3.00195312 -0.03710938 C12.83544793 -0.05645395 21.15707761 1.31288818 29.875 5.9375 C30.56327881 6.29384521 31.25155762 6.65019043 31.96069336 7.01733398 C43.85511577 13.26818184 54.18982879 20.50818774 59.8125 33.1875 C60.1425 35.4975 60.4725 37.8075 60.8125 40.1875 C68.0725 40.1875 75.3325 40.1875 82.8125 40.1875 C83.19196429 65.86458329 79.8499124 88.3625773 69.8125 112.1875 C69.1525 112.1875 68.4925 112.1875 67.8125 112.1875 C67.54566406 113.07050781 67.27882812 113.95351562 67.00390625 114.86328125 C59.7893831 134.99298354 42.00326603 148.80758884 23.5078125 157.79296875 C15.63144339 160.7653406 7.8114787 161.57646051 -0.5625 161.5625 C-1.47427002 161.56233887 -2.38604004 161.56217773 -3.32543945 161.56201172 C-10.91183169 161.4339884 -19.53910954 160.83589046 -25.1875 155.1875 C-26.7034375 154.5996875 -26.7034375 154.5996875 -28.25 154 C-48.07553889 145.72570484 -61.19568082 123.5350415 -69.19433594 104.64746094 C-77.82491032 83.27045321 -79.68718004 63.09875495 -79.1875 40.1875 C-68.7925 39.6925 -68.7925 39.6925 -58.1875 39.1875 C-57.671875 37.558125 -57.15625 35.92875 -56.625 34.25 C-51.98239371 21.58834648 -41.82554343 12.58326817 -30.03125 6.50390625 C-19.86456772 1.79762613 -11.12618181 0.00710031 0 0 Z " fill="#364962" transform="translate(93.1875,1.8125)"/>
<path d="M0 0 C37.29 0 74.58 0 113 0 C113 66 113 132 113 200 C89.57 200 66.14 200 42 200 C42 199.01 42 198.02 42 197 C41.27039063 196.98582031 40.54078125 196.97164062 39.7890625 196.95703125 C29.59689126 196.49146293 18.21276604 194.60638302 9 190 C9 189.34 9 188.68 9 188 C12.96084906 186.21122946 16.86193536 185.3501047 21.109375 184.5625 C21.73328125 184.376875 22.3571875 184.19125 23 184 C23.33 183.34 23.66 182.68 24 182 C26.54900067 180.80635032 29.08678242 179.69385116 31.6875 178.625 C35.81036803 176.92933453 39.71926118 175.30852266 43.37890625 172.734375 C44.24386719 172.16203125 45.10882813 171.5896875 46 171 C48.25 171.625 48.25 171.625 51 173 C54.31275223 173.77586801 57.65323429 174.38913403 61 175 C61 174.34 61 173.68 61 173 C62.2065625 172.5978125 62.2065625 172.5978125 63.4375 172.1875 C64.283125 171.795625 65.12875 171.40375 66 171 C66.33 170.01 66.66 169.02 67 168 C62.05 167.67 57.1 167.34 52 167 C53.485 164.525 53.485 164.525 55 162 C59.75 162.875 59.75 162.875 62 164 C66.92706735 164.37185414 70.10025069 164.19070398 74 161 C74 160.01 74 159.02 74 158 C70.04 157.67 66.08 157.34 62 157 C62.33 155.68 62.66 154.36 63 153 C65.92644103 152.14396623 68.39846827 151.94136009 71.4375 152.0625 C75.07902155 152.116582 77.70763394 151.69928571 81 150 C81 149.34 81 148.68 81 148 C77.04 147.67 73.08 147.34 69 147 C71 142 71 142 72 141 C74.74403381 140.75507797 77.4869967 140.61614703 80.23828125 140.4765625 C83.33920368 139.94146697 84.75097399 139.17182832 87 137 C87.33 136.01 87.66 135.02 88 134 C82.555 134.99 82.555 134.99 77 136 C77.33 134.35 77.66 132.7 78 131 C79.0725 130.71125 80.145 130.4225 81.25 130.125 C84.09400364 129.27179891 86.43508983 128.4363497 89 127 C89 126.34 89 125.68 89 125 C86.69 124.67 84.38 124.34 82 124 C82 122.68 82 121.36 82 120 C85.63 119.67 89.26 119.34 93 119 C93 117.68 93 116.36 93 115 C90.03 115 87.06 115 84 115 C84 114.01 84 113.02 84 112 C85.11375 111.690625 86.2275 111.38125 87.375 111.0625 C90.7945155 110.17673517 90.7945155 110.17673517 93 109 C93.495 107.515 93.495 107.515 94 106 C91.36 106 88.72 106 86 106 C86 105.34 86 104.68 86 104 C87.11375 103.5875 88.2275 103.175 89.375 102.75 C91.99320695 101.64453484 92.83493089 101.25119213 94.4375 98.8125 C94.623125 98.214375 94.80875 97.61625 95 97 C92.69 97 90.38 97 88 97 C88.4640625 96.01 88.4640625 96.01 88.9375 95 C90.24960255 91.29523985 90.60264135 87.90736009 91 84 C90.01 84 89.02 84 88 84 C87.505 85.485 87.505 85.485 87 87 C86.67 86.67 86.34 86.34 86 86 C86.06560947 84.32994067 86.20412275 82.66258947 86.375 81 C86.46523437 80.0925 86.55546875 79.185 86.6484375 78.25 C86.83574949 76.51840467 87.02664824 74.7870551 87.24291992 73.05883789 C88.0360595 66.52897689 88.32089861 60.00826564 88.5625 53.4375 C88.62727539 51.78137695 88.62727539 51.78137695 88.69335938 50.09179688 C88.79844335 47.39464156 88.89962413 44.69733464 89 42 C81.74 42 74.48 42 67 42 C66.2265625 39.5559375 66.2265625 39.5559375 65.4375 37.0625 C60.1001673 22.47379063 48.22758474 14.29057145 34.77294922 7.80566406 C30.94876006 6.06787499 27.09033001 4.91203304 23 4 C22.21625 3.80921875 21.4325 3.6184375 20.625 3.421875 C13.81258402 1.89344834 6.95770586 1.41440881 0 1 C0 0.67 0 0.34 0 0 Z " fill="#FCFCFC" transform="translate(87,0)"/>
<path d="M0 0 C0.99064453 -0.01224609 1.98128906 -0.02449219 3.00195312 -0.03710938 C12.83544793 -0.05645395 21.15707761 1.31288818 29.875 5.9375 C30.56327881 6.29384521 31.25155762 6.65019043 31.96069336 7.01733398 C43.85511577 13.26818184 54.18982879 20.50818774 59.8125 33.1875 C60.1425 35.4975 60.4725 37.8075 60.8125 40.1875 C68.0725 40.1875 75.3325 40.1875 82.8125 40.1875 C83.19196429 65.86458329 79.8499124 88.3625773 69.8125 112.1875 C69.1525 112.1875 68.4925 112.1875 67.8125 112.1875 C67.54566406 113.07050781 67.27882812 113.95351562 67.00390625 114.86328125 C59.7893831 134.99298354 42.00326603 148.80758884 23.5078125 157.79296875 C15.63144339 160.7653406 7.8114787 161.57646051 -0.5625 161.5625 C-1.47427002 161.56233887 -2.38604004 161.56217773 -3.32543945 161.56201172 C-10.91183169 161.4339884 -19.53910954 160.83589046 -25.1875 155.1875 C-26.7034375 154.5996875 -26.7034375 154.5996875 -28.25 154 C-48.07553889 145.72570484 -61.19568082 123.5350415 -69.19433594 104.64746094 C-77.82491032 83.27045321 -79.68718004 63.09875495 -79.1875 40.1875 C-68.7925 39.6925 -68.7925 39.6925 -58.1875 39.1875 C-57.671875 37.558125 -57.15625 35.92875 -56.625 34.25 C-51.98239371 21.58834648 -41.82554343 12.58326817 -30.03125 6.50390625 C-19.86456772 1.79762613 -11.12618181 0.00710031 0 0 Z M-43.87890625 28.4609375 C-48.75749806 34.22279382 -52.1875 39.55975009 -52.1875 47.1875 C-58.7875 47.1875 -65.3875 47.1875 -72.1875 47.1875 C-73.08669031 79.55835127 -64.69433418 108.5463365 -43.1875 133.1875 C-42.57261719 133.90292969 -41.95773438 134.61835938 -41.32421875 135.35546875 C-31.54033246 145.93327421 -17.00697344 152.49456743 -2.7109375 153.41015625 C14.49978376 153.81325868 29.52873601 148.45461892 42.25 136.8125 C64.05034039 115.96046726 75.2091259 86.42601056 75.9921875 56.515625 C76.03914497 53.06126266 75.91740521 49.64937185 75.8125 46.1875 C69.2125 45.8575 62.6125 45.5275 55.8125 45.1875 C55.296875 43.723125 54.78125 42.25875 54.25 40.75 C48.48515098 26.50861338 36.54547452 18.11806929 22.8125 12.1875 C-1.69357631 2.5802174 -25.97371684 9.96915062 -43.87890625 28.4609375 Z " fill="#2A405E" transform="translate(93.1875,1.8125)"/>
<path d="M0 0 C23.1 0 46.2 0 70 0 C67.24183031 19.3071878 56.92259857 38.29039725 41.140625 50.1484375 C35.97403253 53.53098561 30.55808027 56.32388728 25 59 C24.67 59.33 24.34 59.66 24 60 C15.90372447 61.48707102 8.44447974 61 0 61 C0 40.87 0 20.74 0 0 Z " fill="#CF3D3C" transform="translate(86,84)"/>
<path d="M0 0 C14.95439189 0 14.95439189 0 21.8125 2.5 C22.51697266 2.73847656 23.22144531 2.97695313 23.94726562 3.22265625 C25.63756939 3.7975895 27.31983161 4.39608838 29 5 C29 5.66 29 6.32 29 7 C29.721875 7.061875 30.44375 7.12375 31.1875 7.1875 C34.94804324 8.27387916 36.36500698 10.11405526 39 13 C39.53625 13.47179688 40.0725 13.94359375 40.625 14.4296875 C46.33460046 19.55303434 50.06194573 25.94509766 53 33 C53 34.65 53 36.3 53 38 C59.27 38 65.54 38 72 38 C72.07664396 45.894328 71.87630759 53.11323169 71 61 C47.57 61 24.14 61 0 61 C0 40.87 0 20.74 0 0 Z " fill="#E5A537" transform="translate(87,20)"/>
<path d="M0 0 C0.66 0 1.32 0 2 0 C2.2954439 5.02254631 1.98514628 7.89542386 -1 12 C1.31 12 3.62 12 6 12 C5.62607279 14.71097227 5.18642373 15.82000467 3.1875 17.75 C1 19 1 19 -3 19 C-3 19.66 -3 20.32 -3 21 C-0.36 21 2.28 21 5 21 C4.6875 22.875 4.6875 22.875 4 25 C0.5647952 27.29013653 -0.985331 27.17842973 -5 27 C-5 27.99 -5 28.98 -5 30 C-2.03 30 0.94 30 4 30 C4 31.32 4 32.64 4 34 C0.32589215 35.17571451 -3.16929183 35.07366746 -7 35 C-7 36.32 -7 37.64 -7 39 C-4.69 39 -2.38 39 0 39 C0 40.32 0 41.64 0 43 C-3.26545761 44.88391785 -6.28111761 45.49287967 -10 46 C-10.33 47.32 -10.66 48.64 -11 50 C-10.01 49.67 -9.02 49.34 -8 49 C-5.66700175 48.96045766 -3.33291811 48.95598268 -1 49 C-1.36034549 51.61250478 -1.76100622 52.77309326 -3.69921875 54.61328125 C-7.18332106 56.71320709 -10.45748528 56.36600395 -14.44140625 56.3984375 C-15.70791016 56.69621094 -15.70791016 56.69621094 -17 57 C-17.99 58.65 -18.98 60.3 -20 62 C-16.04 62 -12.08 62 -8 62 C-8 63.32 -8 64.64 -8 66 C-11.92857754 67.85131483 -14.98775112 68.22004943 -19.3125 68.125 C-20.38113281 68.10695313 -21.44976562 68.08890625 -22.55078125 68.0703125 C-23.35902344 68.04710937 -24.16726562 68.02390625 -25 68 C-25.99 69.98 -25.99 69.98 -27 72 C-23.04 72 -19.08 72 -15 72 C-14.67 73.32 -14.34 74.64 -14 76 C-18.51201475 79.52157248 -21.27697526 80.7028276 -27 80 C-29.45742316 79.16006044 -31.65840037 78.14690594 -34 77 C-34.99 78.98 -34.99 78.98 -36 81 C-35.15695313 81.06058594 -34.31390625 81.12117188 -33.4453125 81.18359375 C-31.80175781 81.30927734 -31.80175781 81.30927734 -30.125 81.4375 C-28.48917969 81.55931641 -28.48917969 81.55931641 -26.8203125 81.68359375 C-24 82 -24 82 -22 83 C-22.33 84.32 -22.66 85.64 -23 87 C-25.475 87.495 -25.475 87.495 -28 88 C-28 88.66 -28 89.32 -28 90 C-35.37943476 90.3752255 -35.37943476 90.3752255 -38.6875 88.375 C-39.450625 87.92125 -40.21375 87.4675 -41 87 C-46.34291838 88.64096945 -51.34572499 91.67777392 -56.29296875 94.25390625 C-61.67450778 97 -61.67450778 97 -65 97 C-65.495 98.485 -65.495 98.485 -66 100 C-69.16015625 100.94921875 -69.16015625 100.94921875 -73.0625 101.6875 C-74.35285156 101.93886719 -75.64320312 102.19023437 -76.97265625 102.44921875 C-77.97167969 102.63097656 -78.97070312 102.81273437 -80 103 C-80 103.66 -80 104.32 -80 105 C-69.07288322 107.89723015 -58.15628964 110.17743783 -47 112 C-47 112.99 -47 113.98 -47 115 C-59.00248175 115.5119542 -68.59522799 114.83461408 -79.5 109.1875 C-88.7500614 106.04908631 -98.00028364 109.72406263 -106.75 112.94140625 C-110 114 -110 114 -114 114 C-115.4606285 111.35261084 -116 110.10551666 -116 107 C-109.73 106.01 -103.46 105.02 -97 104 C-101.9930807 101.54270959 -101.9930807 101.54270959 -106.99072266 99.09472656 C-110.26137363 97.47227112 -113.36252868 95.81996948 -116.35546875 93.72265625 C-118.85147998 91.71831617 -118.85147998 91.71831617 -121.6875 92.1875 C-122.450625 92.455625 -123.21375 92.72375 -124 93 C-128.26183659 94.4206122 -132.71273845 95.10270083 -136.85546875 93.10546875 C-138.28816368 92.14239828 -139.65198441 91.07841247 -141 90 C-140.67 88.68 -140.34 87.36 -140 86 C-137.87506859 85.97306425 -135.75004088 85.95363372 -133.625 85.9375 C-131.84996094 85.92009766 -131.84996094 85.92009766 -130.0390625 85.90234375 C-127 86 -127 86 -125 87 C-125.495 86.38125 -125.99 85.7625 -126.5 85.125 C-128 83 -128 83 -128 81 C-129.175625 81.515625 -130.35125 82.03125 -131.5625 82.5625 C-135.73718861 84.11878851 -138.62507284 84.15564114 -143 83 C-145.9375 81.4375 -145.9375 81.4375 -148 80 C-147.67 78.68 -147.34 77.36 -147 76 C-143.04 76 -139.08 76 -135 76 C-135.66 74.35 -136.32 72.7 -137 71 C-137.54527344 71.15984375 -138.09054688 71.3196875 -138.65234375 71.484375 C-141.33340014 72.07322599 -143.8182915 72.2051966 -146.5625 72.25 C-147.51253906 72.27578125 -148.46257812 72.3015625 -149.44140625 72.328125 C-152 72 -152 72 -153.83984375 70.671875 C-155 69 -155 69 -155 66 C-149.06 65.505 -149.06 65.505 -143 65 C-143.66 63.35 -144.32 61.7 -145 60 C-145.80824219 60.04640625 -146.61648437 60.0928125 -147.44921875 60.140625 C-156.21684904 60.43675727 -156.21684904 60.43675727 -160.25 58.1875 C-162 56 -162 56 -162 53 C-156.73946963 52.68436818 -153.55426184 53.33409063 -149 56 C-149.87887015 53.44209319 -149.87887015 53.44209319 -152 51 C-154.28109169 50.269371 -156.47206543 49.87881772 -158.84375 49.5546875 C-161.36210113 48.9068508 -162.34596749 47.96151291 -164 46 C-163.67 45.01 -163.34 44.02 -163 43 C-160.36 43 -157.72 43 -155 43 C-155 42.01 -155 41.02 -155 40 C-156.2375 40.061875 -157.475 40.12375 -158.75 40.1875 C-161.78211302 40.20362826 -162.82248296 40.10651023 -165.5 38.5 C-165.995 38.005 -166.49 37.51 -167 37 C-166.67 35.68 -166.34 34.36 -166 33 C-163.36 33 -160.72 33 -158 33 C-158 32.34 -158 31.68 -158 31 C-158.9075 31.061875 -159.815 31.12375 -160.75 31.1875 C-164.30029087 30.98267553 -165.56086737 30.53294542 -168 28 C-168 27.01 -168 26.02 -168 25 C-165.36 25 -162.72 25 -160 25 C-160 24.34 -160 23.68 -160 23 C-160.94875 22.87625 -161.8975 22.7525 -162.875 22.625 C-166 22 -166 22 -168 20 C-168 18.68 -168 17.36 -168 16 C-166.02 16 -164.04 16 -162 16 C-162.495 15.319375 -162.99 14.63875 -163.5 13.9375 C-165.30365111 10.40534991 -165.23021353 7.91363009 -165 4 C-164.01 3.67 -163.02 3.34 -162 3 C-161.83564453 3.84256348 -161.83564453 3.84256348 -161.66796875 4.70214844 C-155.33828162 36.41491019 -142.04171991 67.35459577 -115 86.8125 C-105.12234434 93.79866389 -105.12234434 93.79866389 -94 98 C-94 98.66 -94 99.32 -94 100 C-84.87633377 100.71651829 -79.00531752 99.23931982 -71 95 C-69.73953693 94.39567761 -68.47633395 93.797048 -67.2109375 93.203125 C-44.48639025 82.43092114 -25.92696432 66.94156628 -15 44 C-14.34 44 -13.68 44 -13 44 C-12.61134766 42.56333984 -12.61134766 42.56333984 -12.21484375 41.09765625 C-11.13859917 37.32748723 -9.82712484 33.6652749 -8.48681641 29.98217773 C-5.5607165 21.92651494 -3.09250446 14.08731803 -1.5078125 5.65234375 C-1 3 -1 3 0 0 Z " fill="#324764" transform="translate(176,85)"/>
<path d="M0 0 C7.4732766 6.21937113 11.51915246 13.01058238 14.578125 22.1875 C21.178125 22.5175 27.778125 22.8475 34.578125 23.1875 C35.21526772 44.21320989 32.17043283 65.24705218 22.578125 84.1875 C22.17207031 85.02152344 21.76601562 85.85554688 21.34765625 86.71484375 C11.18544101 106.55535921 -4.32666293 121.56966477 -25.5859375 128.9375 C-39.32184167 132.64156405 -54.40193714 130.42635444 -66.984375 124.1875 C-83.82883172 114.48671649 -94.66216895 99.23987808 -102.62597656 81.90429688 C-103.27668588 80.50068094 -103.96514813 79.11462099 -104.6640625 77.734375 C-112.71672203 61.37936107 -113.73811751 42.05520161 -113.421875 24.1875 C-106.821875 24.1875 -100.221875 24.1875 -93.421875 24.1875 C-93.091875 21.8775 -92.761875 19.5675 -92.421875 17.1875 C-87.09539834 4.25757956 -75.06022349 -5.66010126 -62.484375 -11 C-40.43416795 -19.25212294 -18.46808422 -13.82127593 0 0 Z M-77.421875 6.1875 C-82.81348897 12.43042144 -88.421875 19.58594075 -88.421875 28.1875 C-95.351875 28.1875 -102.281875 28.1875 -109.421875 28.1875 C-109.421875 57.36938815 -100.58407256 83.96953671 -81.421875 106.1875 C-80.79023437 106.94289063 -80.15859375 107.69828125 -79.5078125 108.4765625 C-71.31424292 117.50692216 -58.54651622 124.48204612 -46.33984375 125.42578125 C-35.53737524 125.66925326 -25.53928789 123.89721806 -15.421875 120.1875 C-15.421875 119.5275 -15.421875 118.8675 -15.421875 118.1875 C-14.431875 117.878125 -14.431875 117.878125 -13.421875 117.5625 C2.1106064 110.44344602 13.84581205 93.39391617 20.578125 78.1875 C22.04794552 74.10364452 23.29390564 69.95712187 24.5 65.7890625 C25.578125 62.1875 25.578125 62.1875 26.6484375 59.5390625 C30.54998879 49.67043277 29.74572116 38.57846204 29.578125 28.1875 C22.978125 28.1875 16.378125 28.1875 9.578125 28.1875 C9.083125 25.2175 9.083125 25.2175 8.578125 22.1875 C2.01425007 7.91820667 -8.86099366 -1.44519556 -23.21484375 -7.5234375 C-27.87931775 -9.18772807 -32.3253818 -9.22816952 -37.234375 -9.125 C-38.11512695 -9.1137207 -38.99587891 -9.10244141 -39.90332031 -9.09082031 C-55.66441364 -8.7594362 -65.90810746 -4.79074347 -77.421875 6.1875 Z " fill="#E7E9EC" transform="translate(134.421875,24.8125)"/>
<path d="M0 0 C1.32 0 2.64 0 4 0 C4 19.8 4 39.6 4 60 C-12.83 60 -29.66 60 -47 60 C-50.18477112 52.03807221 -50.11977525 44.50404246 -50 36 C-43.73 36 -37.46 36 -31 36 C-30.34 33.36 -29.68 30.72 -29 28 C-23.25523442 15.57740182 -13.71165621 6.00237238 -1 1 C-0.67 0.67 -0.34 0.34 0 0 Z " fill="#F4C634" transform="translate(80,22)"/>
<path d="M0 0 C16.83 0 33.66 0 51 0 C51 19.8 51 39.6 51 60 C43 59 43 59 41 57 C39.5459375 56.4740625 39.5459375 56.4740625 38.0625 55.9375 C23.81203622 49.98252449 12.50288871 34.622199 6.62890625 20.765625 C5.37111767 17.52597964 4.17620078 14.27000499 3 11 C2.39752753 9.45767047 1.79365704 7.91588517 1.1875 6.375 C0 3 0 3 0 0 Z " fill="#EAECE0" transform="translate(33,84)"/>
<path d="M0 0 C1.32 0 2.64 0 4 0 C4 18.15 4 36.3 4 55 C11.26 55 18.52 55 26 55 C25.34 53.02 24.68 51.04 24 49 C27.01921452 47.08077439 30.04066238 45.16509237 33.0625 43.25 C33.91005859 42.71117187 34.75761719 42.17234375 35.63085938 41.6171875 C38.08007894 40.06633032 40.53795287 38.53039251 43 37 C43.68562012 36.56494141 44.37124023 36.12988281 45.07763672 35.68164062 C46.67175645 34.70696705 48.33176915 33.8415534 50 33 C50.99 33.33 51.98 33.66 53 34 C53 34.99 53 35.98 53 37 C59.27 37 65.54 37 72 37 C72.07664396 44.894328 71.87630759 52.11323169 71 60 C47.57 60 24.14 60 0 60 C0 40.2 0 20.4 0 0 Z " fill="#EBAF4A" transform="translate(87,21)"/>
<path d="M0 0 C0.33 0 0.66 0 1 0 C1.33 19.47 1.66 38.94 2 59 C36.155 59.495 36.155 59.495 71 60 C71 60.33 71 60.66 71 61 C48.23 61.33 25.46 61.66 2 62 C1.67 82.13 1.34 102.26 1 123 C22.52660767 122.98441073 22.52660767 122.98441073 30 118 C31.72854761 117.12377771 33.45773845 116.24882341 35.1875 115.375 C45.12311982 109.9458457 52.05578958 102.52759968 58 93 C58.89525391 91.62714844 58.89525391 91.62714844 59.80859375 90.2265625 C64.61759449 82.51147744 67.43486499 74.65289784 70 66 C70.33 66.66 70.66 67.32 71 68 C71.99 67.67 72.98 67.34 74 67 C71.20052289 86.59633978 56.44591421 106.32889774 41 118 C36.5 121 36.5 121 34 121 C34 121.66 34 122.32 34 123 C31.81426438 123.65177969 29.6263177 124.29614674 27.4375 124.9375 C26.21933594 125.29714844 25.00117187 125.65679687 23.74609375 126.02734375 C8.60317515 129.95913388 -4.76035251 128.53138948 -18.2734375 120.78515625 C-31.73501841 111.97148508 -40.66152968 98.99954339 -48 85 C-48.70962891 83.66195312 -48.70962891 83.66195312 -49.43359375 82.296875 C-55.23527427 70.51277624 -59.16319762 57.18290639 -58 44 C-57.01 44 -56.02 44 -55 44 C-52.71964915 48.5607017 -52.77534255 53.96027343 -52 59 C-35.17 59.33 -18.34 59.66 -1 60 C-1.01160156 55.75253906 -1.02320313 51.50507812 -1.03515625 47.12890625 C-1.04158318 43.75092854 -1.04700741 40.37295256 -1.05175018 36.99497223 C-1.0570399 33.42428875 -1.06411339 29.85362885 -1.07543945 26.28295898 C-1.08834176 22.18993903 -1.09322906 18.0969442 -1.09765625 14.00390625 C-1.10281754 12.71851456 -1.10797882 11.43312286 -1.11329651 10.10877991 C-1.11337204 8.92763107 -1.11344757 7.74648224 -1.11352539 6.52954102 C-1.115746 5.48363297 -1.11796661 4.43772491 -1.12025452 3.36012268 C-1 1 -1 1 0 0 Z M-52 62 C-50.34013915 70.29930425 -48.68359121 75.73429391 -45 83 C-44.52175781 83.94359375 -44.04351562 84.8871875 -43.55078125 85.859375 C-40.49803892 91.66038667 -37.15314423 96.93087409 -33 102 C-32.45472656 102.67933594 -31.90945312 103.35867187 -31.34765625 104.05859375 C-24.03814083 112.82669728 -15.0445304 118.91780547 -4 122 C-3.01 122 -2.02 122 -1 122 C-1 102.2 -1 82.4 -1 62 C-17.83 62 -34.66 62 -52 62 Z " fill="#33445F" transform="translate(85,22)"/>
<path d="M0 0 C0.66 0 1.32 0 2 0 C2.2954439 5.02254631 1.98514628 7.89542386 -1 12 C1.31 12 3.62 12 6 12 C5.62607279 14.71097227 5.18642373 15.82000467 3.1875 17.75 C1 19 1 19 -3 19 C-3 19.66 -3 20.32 -3 21 C-0.36 21 2.28 21 5 21 C4.6875 22.875 4.6875 22.875 4 25 C0.5647952 27.29013653 -0.985331 27.17842973 -5 27 C-5 27.99 -5 28.98 -5 30 C-2.03 30 0.94 30 4 30 C4 31.32 4 32.64 4 34 C0.32589215 35.17571451 -3.16929183 35.07366746 -7 35 C-7 36.32 -7 37.64 -7 39 C-4.69 39 -2.38 39 0 39 C0 40.32 0 41.64 0 43 C-3.26545761 44.88391785 -6.28111761 45.49287967 -10 46 C-10.33 47.32 -10.66 48.64 -11 50 C-10.01 49.67 -9.02 49.34 -8 49 C-5.66700175 48.96045766 -3.33291811 48.95598268 -1 49 C-1.36034549 51.61250478 -1.76100622 52.77309326 -3.69921875 54.61328125 C-7.18332106 56.71320709 -10.45748528 56.36600395 -14.44140625 56.3984375 C-15.70791016 56.69621094 -15.70791016 56.69621094 -17 57 C-17.99 58.65 -18.98 60.3 -20 62 C-16.04 62 -12.08 62 -8 62 C-8 63.32 -8 64.64 -8 66 C-11.92857754 67.85131483 -14.98775112 68.22004943 -19.3125 68.125 C-20.38113281 68.10695313 -21.44976562 68.08890625 -22.55078125 68.0703125 C-23.35902344 68.04710937 -24.16726562 68.02390625 -25 68 C-25.66 69.32 -26.32 70.64 -27 72 C-23.04 72 -19.08 72 -15 72 C-14.67 73.32 -14.34 74.64 -14 76 C-18.51201475 79.52157248 -21.27697526 80.7028276 -27 80 C-29.45742316 79.16006044 -31.65840037 78.14690594 -34 77 C-34.66 78.32 -35.32 79.64 -36 81 C-35.15695313 81.06058594 -34.31390625 81.12117188 -33.4453125 81.18359375 C-31.80175781 81.30927734 -31.80175781 81.30927734 -30.125 81.4375 C-28.48917969 81.55931641 -28.48917969 81.55931641 -26.8203125 81.68359375 C-24 82 -24 82 -22 83 C-22.495 84.98 -22.495 84.98 -23 87 C-25.475 87.495 -25.475 87.495 -28 88 C-28 88.66 -28 89.32 -28 90 C-35.37943476 90.3752255 -35.37943476 90.3752255 -38.6875 88.375 C-39.8321875 87.694375 -39.8321875 87.694375 -41 87 C-45.54090402 88.40610871 -49.7711417 90.84655924 -54 93 C-66.07664884 99.14973262 -66.07664884 99.14973262 -69.3125 98.625 C-69.869375 98.41875 -70.42625 98.2125 -71 98 C-66.77363842 93.97489373 -62.56761972 91.11127173 -57.4375 88.3125 C-39.05539612 78.16461196 -24.01532275 63.11060603 -15 44 C-14.34 44 -13.68 44 -13 44 C-12.74089844 43.04222656 -12.48179687 42.08445313 -12.21484375 41.09765625 C-11.13859917 37.32748723 -9.82712484 33.6652749 -8.48681641 29.98217773 C-5.5607165 21.92651494 -3.09250446 14.08731803 -1.5078125 5.65234375 C-1 3 -1 3 0 0 Z " fill="#314663" transform="translate(176,85)"/>
<path d="M0 0 C7.49711214 1.65855832 12.44283967 8.21934732 17.06640625 14.0078125 C18 16 18 16 18.08984375 18.375 C16.42507754 22.38475947 13.41578841 24.31848817 10 26.875 C9.32098633 27.39803711 8.64197266 27.92107422 7.94238281 28.45996094 C6.58842473 29.50201245 5.23073717 30.53923834 3.86914062 31.57128906 C0.76877822 33.9411063 -2.23930422 36.42734064 -5.265625 38.890625 C-7 40 -7 40 -10 40 C-10 39.34 -10 38.68 -10 38 C-10.99 37.67 -11.98 37.34 -13 37 C-13 36.34 -13 35.68 -13 35 C-13.99 35 -14.98 35 -16 35 C-15.3764449 30.55394145 -13.64539469 26.90076403 -11.62109375 22.94921875 C-11.28956802 22.29041214 -10.9580423 21.63160553 -10.61647034 20.95283508 C-9.56244158 18.86149094 -8.5001205 16.77448954 -7.4375 14.6875 C-6.71884842 13.26525306 -6.00074341 11.8427298 -5.28320312 10.41992188 C-3.52844785 6.9433833 -1.76624636 3.4707137 0 0 Z " fill="#E8AA40" transform="translate(118,29)"/>
<path d="M0 0 C1.32 0 2.64 0 4 0 C4 18.81 4 37.62 4 57 C24.81840731 56.63573705 24.81840731 56.63573705 44.38671875 53.765625 C48.43234309 52.90839001 52.46122617 52.3225593 56.5625 51.8125 C57.82191406 51.65394531 59.08132812 51.49539062 60.37890625 51.33203125 C63.94248652 51.00527362 67.42376252 50.94016591 71 51 C71 53.97 71 56.94 71 60 C47.57 60 24.14 60 0 60 C0 40.2 0 20.4 0 0 Z " fill="#FEFDFA" transform="translate(87,21)"/>
<path d="M0 0 C1.32 0 2.64 0 4 0 C4 19.8 4 39.6 4 60 C-12.83 60 -29.66 60 -47 60 C-47.33 58.35 -47.66 56.7 -48 55 C-32.49 55 -16.98 55 -1 55 C-1.01160156 51.11347656 -1.02320313 47.22695312 -1.03515625 43.22265625 C-1.04294538 39.47631919 -1.04902296 35.72998302 -1.05493164 31.98364258 C-1.05997377 29.37133381 -1.06680725 26.75902789 -1.07543945 24.14672852 C-1.08751036 20.40119732 -1.09322935 16.65570328 -1.09765625 12.91015625 C-1.10281754 11.73413345 -1.10797882 10.55811066 -1.11329651 9.34645081 C-1.11337204 8.26540573 -1.11344757 7.18436066 -1.11352539 6.07055664 C-1.115746 5.11347305 -1.11796661 4.15638947 -1.12025452 3.17030334 C-1 1 -1 1 0 0 Z " fill="#D0CCBA" transform="translate(80,22)"/>
<path d="M0 0 C4.33239451 -0.1272674 7.86274183 -0.00452609 11.9375 1.5 C12.70964844 1.7784375 13.48179688 2.056875 14.27734375 2.34375 C14.84582031 2.5603125 15.41429688 2.776875 16 3 C15.45326622 8.42025068 14.48062059 13.15817752 12.71484375 18.34375 C12.3840255 19.32559265 12.3840255 19.32559265 12.04652405 20.32727051 C11.35061524 22.38733686 10.64428242 24.44364226 9.9375 26.5 C9.45958784 27.90861733 8.9823681 29.31746979 8.50585938 30.7265625 C7.34521866 34.15379206 6.17521083 37.57773519 5 41 C2.69 40.67 0.38 40.34 -2 40 C-1.33333333 26.66666667 -0.66666667 13.33333333 0 0 Z " fill="#E8A637" transform="translate(96,21)"/>
<path d="M0 0 C12.54 0 25.08 0 38 0 C38 3.96 38 7.92 38 12 C22.655 12.495 22.655 12.495 7 13 C0 1 0 1 0 0 Z " fill="#D7DBC3" transform="translate(42,108)"/>
<path d="M0 0 C22.44 0 44.88 0 68 0 C68 0.99 68 1.98 68 3 C46.55 3 25.1 3 3 3 C3 21.48 3 39.96 3 59 C2.01 59 1.02 59 0 59 C0 39.53 0 20.06 0 0 Z " fill="#F7F3F3" transform="translate(87,85)"/>
<path d="M0 0 C0.33 0 0.66 0 1 0 C1.33 19.47 1.66 38.94 2 59 C36.155 59.495 36.155 59.495 71 60 C71 60.33 71 60.66 71 61 C48.23 61.33 25.46 61.66 2 62 C1.67 81.47 1.34 100.94 1 121 C0.01 121.495 0.01 121.495 -1 122 C-1.33 102.2 -1.66 82.4 -2 62 C-26.75 61.505 -26.75 61.505 -52 61 C-52 60.67 -52 60.34 -52 60 C-35.17 60 -18.34 60 -1 60 C-1.01160156 55.75253906 -1.02320313 51.50507812 -1.03515625 47.12890625 C-1.04158318 43.75092854 -1.04700741 40.37295256 -1.05175018 36.99497223 C-1.0570399 33.42428875 -1.06411339 29.85362885 -1.07543945 26.28295898 C-1.08834176 22.18993903 -1.09322906 18.0969442 -1.09765625 14.00390625 C-1.10281754 12.71851456 -1.10797882 11.43312286 -1.11329651 10.10877991 C-1.11337204 8.92763107 -1.11344757 7.74648224 -1.11352539 6.52954102 C-1.115746 5.48363297 -1.11796661 4.43772491 -1.12025452 3.36012268 C-1 1 -1 1 0 0 Z " fill="#213657" transform="translate(85,22)"/>
<path d="M0 0 C1.32 0 2.64 0 4 0 C4 18.48 4 36.96 4 56 C3.67 56 3.34 56 3 56 C3 37.85 3 19.7 3 1 C2.34 1 1.68 1 1 1 C1 20.14 1 39.28 1 59 C23.44 59 45.88 59 69 59 C69 58.34 69 57.68 69 57 C65.04 57 61.08 57 57 57 C57.33 56.01 57.66 55.02 58 54 C57.175 54.165 56.35 54.33 55.5 54.5 C51.58727683 55.05896045 47.94816827 55.06807187 44 55 C47.70395178 52.72211751 51.57985278 52.35180791 55.8125 51.875 C56.49892578 51.78863281 57.18535156 51.70226562 57.89257812 51.61328125 C62.29193539 51.08885456 66.57047757 50.91893684 71 51 C71 53.97 71 56.94 71 60 C47.57 60 24.14 60 0 60 C0 40.2 0 20.4 0 0 Z " fill="#EFE6D9" transform="translate(87,21)"/>
<path d="M0 0 C16.83 0 33.66 0 51 0 C51 19.8 51 39.6 51 60 C49.68 59.67 48.36 59.34 47 59 C47.66 58.67 48.32 58.34 49 58 C49 39.52 49 21.04 49 2 C48.01 2.66 47.02 3.32 46 4 C43.93086243 4.24050903 43.93086243 4.24050903 41.52856445 4.22705078 C40.17750359 4.22682419 40.17750359 4.22682419 38.79914856 4.22659302 C37.83031235 4.21627045 36.86147614 4.20594788 35.86328125 4.1953125 C34.37141548 4.19106766 34.37141548 4.19106766 32.84941101 4.18673706 C29.6703187 4.17553489 26.49150728 4.15043014 23.3125 4.125 C21.15820719 4.11497025 19.00390997 4.10584439 16.84960938 4.09765625 C11.56631028 4.07559546 6.28317521 4.04211756 1 4 C0.67 2.68 0.34 1.36 0 0 Z " fill="#CCD0D7" transform="translate(33,84)"/>
<path d="M0 0 C0.66 0 1.32 0 2 0 C2.12004395 0.58265625 2.24008789 1.1653125 2.36376953 1.765625 C4.61789147 12.55487468 6.96109092 23.04860903 11.20751953 33.25 C11.85235299 34.81465099 12.43297273 36.40550228 13 38 C12.67 38.66 12.34 39.32 12 40 C11.67 39.505 11.34 39.01 11 38.5 C8.31145279 36.48358959 6.18847533 36.95023313 2.94140625 37.09375 C0.24761558 36.96366755 -1.1285816 35.8714184 -3 34 C-2.67 32.68 -2.34 31.36 -2 30 C0.64 30 3.28 30 6 30 C6 29.34 6 28.68 6 28 C5.0925 28.061875 4.185 28.12375 3.25 28.1875 C-0.30029087 27.98267553 -1.56086737 27.53294542 -4 25 C-4 24.01 -4 23.02 -4 22 C-1.36 22 1.28 22 4 22 C4 21.34 4 20.68 4 20 C3.05125 19.87625 2.1025 19.7525 1.125 19.625 C-2 19 -2 19 -4 17 C-4 15.68 -4 14.36 -4 13 C-2.02 13 -0.04 13 2 13 C1.505 12.319375 1.01 11.63875 0.5 10.9375 C-1.31428223 7.38453064 -1.30304067 4.9395287 -1 1 C-0.67 0.67 -0.34 0.34 0 0 Z " fill="#465872" transform="translate(12,88)"/>
<path d="M0 0 C0.33 0 0.66 0 1 0 C1.32046076 8.01151891 1.52289383 18.21565925 -3 25 C-3.66 25 -4.32 25 -5 25 C-5 23.02 -5 21.04 -5 19 C-27.77 19 -50.54 19 -74 19 C-74 18.01 -74 17.02 -74 16 C-50.57 16 -27.14 16 -3 16 C-3 13.03 -3 10.06 -3 7 C-1.5 2.9375 -1.5 2.9375 0 0 Z " fill="#56657E" transform="translate(161,65)"/>
<path d="M0 0 C0.66 0 1.32 0 2 0 C2 18.48 2 36.96 2 56 C-14.17 56 -30.34 56 -47 56 C-47 55.34 -47 54.68 -47 54 C-31.49 54 -15.98 54 0 54 C0 36.18 0 18.36 0 0 Z " fill="#FFFEFC" transform="translate(80,24)"/>
<path d="M0 0 C15.18 0 30.36 0 46 0 C46 1.32 46 2.64 46 4 C31.48 4 16.96 4 2 4 C1.67 4.66 1.34 5.32 1 6 C0.67 4.02 0.34 2.04 0 0 Z " fill="#ABB686" transform="translate(34,88)"/>
<path d="M0 0 C21.78 0 43.56 0 66 0 C66 0.33 66 0.66 66 1 C45.21 1.33 24.42 1.66 3 2 C2.67 20.48 2.34 38.96 2 58 C1.34 58 0.68 58 0 58 C0 38.86 0 19.72 0 0 Z " fill="#FEFBFB" transform="translate(88,86)"/>
<path d="M0 0 C0 2.97 0 5.94 0 9 C-9.79539929 10.53653322 -19.07092668 11.27538262 -29 11 C-26.72158101 7.35111768 -24.87539521 6.27852497 -20.78125 5.078125 C-19.76675781 4.77519531 -18.75226563 4.47226563 -17.70703125 4.16015625 C-16.64871094 3.85980469 -15.59039062 3.55945313 -14.5 3.25 C-13.44167969 2.93417969 -12.38335937 2.61835937 -11.29296875 2.29296875 C-3.48099297 0 -3.48099297 0 0 0 Z " fill="#E6A73B" transform="translate(159,63)"/>
<path d="M0 0 C14.19 0 28.38 0 43 0 C43 1.32 43 2.64 43 4 C29.47 4 15.94 4 2 4 C1.67 4.66 1.34 5.32 1 6 C0.67 4.02 0.34 2.04 0 0 Z " fill="#A0AD75" transform="translate(37,95)"/>
<path d="M0 0 C0 1.65 0 3.3 0 5 C-5.28134433 6.69783404 -10.56498235 8.38826004 -15.85083008 10.07202148 C-17.64671864 10.64521181 -19.44197686 11.22038113 -21.23657227 11.79760742 C-23.82402881 12.62946932 -26.41370813 13.45406392 -29.00390625 14.27734375 C-29.79898087 14.53466782 -30.59405548 14.79199188 -31.41322327 15.05711365 C-35.95023006 16.49039828 -40.26950319 17.46888547 -45 18 C-45 17.34 -45 16.68 -45 16 C-35.16832192 11.48899476 -25.16728046 7.94539046 -14.8828125 4.61328125 C-11.71649868 3.58705744 -8.59869897 2.4878347 -5.4921875 1.29296875 C-2 0 -2 0 0 0 Z " fill="#FBEDD7" transform="translate(159,58)"/>
<path d="M0 0 C13.2 0 26.4 0 40 0 C40 1.32 40 2.64 40 4 C27.79 4 15.58 4 3 4 C2.67 4.66 2.34 5.32 2 6 C1.34 4.02 0.68 2.04 0 0 Z " fill="#9FAB73" transform="translate(39,102)"/>
<path d="M0 0 C0.99 0 1.98 0 3 0 C5.57336788 5.14673575 5.23950015 11.29625114 6 17 C22.5 17 39 17 56 17 C56 17.33 56 17.66 56 18 C39.5 18 23 18 6 18 C6.33 18.99 6.66 19.98 7 21 C7.12781786 23.67394964 7.04391871 26.32095857 7 29 C4.20648596 27.60324298 3.99283254 25.66917974 3.0456543 22.83007812 C2.82433838 22.12302734 2.60302246 21.41597656 2.375 20.6875 C2.14917236 19.97142578 1.92334473 19.25535156 1.69067383 18.51757812 C-0.14824761 12.2903372 -0.55252746 6.48298886 0 0 Z " fill="#2A3F5C" transform="translate(27,66)"/>
<path d="M0 0 C11.88 0 23.76 0 36 0 C36 1.32 36 2.64 36 4 C35.04109863 4.02505615 34.08219727 4.0501123 33.09423828 4.07592773 C29.54201523 4.1699862 25.98998844 4.27021058 22.43798828 4.37231445 C20.89962347 4.41566926 19.36121037 4.45734395 17.82275391 4.49731445 C15.6134586 4.55500398 13.40440652 4.61870179 11.1953125 4.68359375 C10.50567413 4.70030624 9.81603577 4.71701874 9.10549927 4.73423767 C5.42885736 4.80806995 5.42885736 4.80806995 2 6 C1.34 4.02 0.68 2.04 0 0 Z " fill="#A0AC75" transform="translate(43,109)"/>
<path d="M0 0 C0.66 0 1.32 0 2 0 C2.2954439 5.02254631 1.98514628 7.89542386 -1 12 C1.31 12 3.62 12 6 12 C5.62607279 14.71097227 5.18642373 15.82000467 3.1875 17.75 C1 19 1 19 -3 19 C-3 19.66 -3 20.32 -3 21 C-0.36 21 2.28 21 5 21 C4.6875 22.875 4.6875 22.875 4 25 C0.5647952 27.29013653 -0.985331 27.17842973 -5 27 C-5.33 27.99 -5.66 28.98 -6 30 C-7.49009981 26.10281588 -6.45921197 23.39050809 -5.25 19.5 C-3.29988073 13.04022992 -1.58540308 6.55780366 0 0 Z " fill="#344865" transform="translate(176,85)"/>
<path d="M0 0 C0.33 1.65 0.66 3.3 1 5 C-0.26839526 5.50615298 -1.53983102 6.00469099 -2.8125 6.5 C-3.87404297 6.91765625 -3.87404297 6.91765625 -4.95703125 7.34375 C-7 8 -7 8 -10 8 C-10 8.66 -10 9.32 -10 10 C-11.4540625 10.61875 -11.4540625 10.61875 -12.9375 11.25 C-15.09439569 12.16810835 -17.23441157 13.10810054 -19.36328125 14.08984375 C-20.54470703 14.63318359 -20.54470703 14.63318359 -21.75 15.1875 C-22.48734375 15.53167969 -23.2246875 15.87585938 -23.984375 16.23046875 C-26 17 -26 17 -29 17 C-27.27767982 11.83303947 -21.93666 9.99428511 -17.40820312 7.31005859 C-15.63047005 6.25325178 -13.86590646 5.17663179 -12.1015625 4.09765625 C-10.9878125 3.43121094 -9.8740625 2.76476563 -8.7265625 2.078125 C-7.18863037 1.15628418 -7.18863037 1.15628418 -5.61962891 0.21582031 C-3 -1 -3 -1 0 0 Z " fill="#FBF2E4" transform="translate(140,55)"/>
<path d="M0 0 C1.32 0.33 2.64 0.66 4 1 C2.83842048 8.99991058 -5.82256957 16.03997982 -11.43359375 21.4296875 C-13.01962969 23.01967864 -14.41280004 24.68277411 -15.8125 26.4375 C-16.534375 27.283125 -17.25625 28.12875 -18 29 C-18.66 29 -19.32 29 -20 29 C-19.44346297 24.8657249 -17.02899944 22.14877842 -14.5 19 C-13.59563145 17.85082881 -12.69200337 16.70107456 -11.7890625 15.55078125 C-11.32790039 14.96635254 -10.86673828 14.38192383 -10.39160156 13.77978516 C-8.17698496 10.94740708 -6.02489993 8.06913248 -3.875 5.1875 C-3.12992188 4.19105469 -2.38484375 3.19460937 -1.6171875 2.16796875 C-1.08351563 1.45253906 -0.54984375 0.73710938 0 0 Z " fill="#FAF2E3" transform="translate(126,36)"/>
<path d="M0 0 C9.24 0 18.48 0 28 0 C28.33 1.65 28.66 3.3 29 5 C24.91924492 5.34199764 20.83672231 5.61481351 16.75 5.875 C15.01169922 6.02195313 15.01169922 6.02195313 13.23828125 6.171875 C12.12324219 6.23632812 11.00820313 6.30078125 9.859375 6.3671875 C8.31975098 6.47716064 8.31975098 6.47716064 6.74902344 6.58935547 C4 6 4 6 0 0 Z " fill="#A8B380" transform="translate(51,122)"/>
<path d="M0 0 C10.89 0 21.78 0 33 0 C33 1.32 33 2.64 33 4 C17.655 4.495 17.655 4.495 2 5 C1.34 3.35 0.68 1.7 0 0 Z " fill="#A0AC75" transform="translate(47,116)"/>
<path d="M0 0 C1.70884005 1.62339805 3.37446717 3.29319053 5 5 C5 5.66 5 6.32 5 7 C3.36567245 8.47769218 1.66523632 9.88269319 -0.0625 11.25 C-3.46842837 13.95896233 -6.79160204 16.68569348 -10 19.625 C-10.99 20.40875 -11.98 21.1925 -13 22 C-13.99 21.67 -14.98 21.34 -16 21 C-14.36784952 16.97274113 -11.51944915 14.15052642 -8.5625 11.0625 C-5.24555608 7.59736147 -2.30543055 4.24355522 0 0 Z " fill="#E4A53C" transform="translate(130,38)"/>
<path d="M0 0 C1.32 0 2.64 0 4 0 C3.46115717 7.53450918 1.1181064 14.2158253 -1.375 21.3125 C-1.77460937 22.49134766 -2.17421875 23.67019531 -2.5859375 24.88476562 C-2.9778125 26.01205078 -3.3696875 27.13933594 -3.7734375 28.30078125 C-4.12841309 29.32341064 -4.48338867 30.34604004 -4.84912109 31.3996582 C-5.95568917 33.89988234 -6.92888963 35.25921204 -9 37 C-8.62068123 28.55253444 -6.43058916 20.91833428 -3.9375 12.875 C-3.37192383 11.01101562 -3.37192383 11.01101562 -2.79492188 9.109375 C-1.87150969 6.07029694 -0.93972382 3.03406582 0 0 Z " fill="#FAF0DD" transform="translate(108,24)"/>
<path d="M0 0 C2.15377564 2.62198774 3.40072174 4.64404172 4 8 C3.28884033 8.09982178 2.57768066 8.19964355 1.8449707 8.30249023 C-1.4151015 9.10177165 -3.66938126 10.39274481 -6.51953125 12.16015625 C-7.54111328 12.78857422 -8.56269531 13.41699219 -9.61523438 14.06445312 C-10.67033203 14.72380859 -11.72542969 15.38316406 -12.8125 16.0625 C-13.88693359 16.72572266 -14.96136719 17.38894531 -16.06835938 18.07226562 C-18.71645524 19.7082004 -21.36005942 21.35094905 -24 23 C-24 22.01 -24 21.02 -24 20 C-21.89543859 18.11996506 -19.81648794 16.43265962 -17.5625 14.75 C-16.92739502 14.26345947 -16.29229004 13.77691895 -15.63793945 13.27563477 C-13.7648342 11.84203172 -11.88343003 10.41999768 -10 9 C-8.22638866 7.64947385 -6.45499961 6.29601507 -4.6875 4.9375 C-3.99011719 4.41027344 -3.29273438 3.88304687 -2.57421875 3.33984375 C-0.87027896 2.06661283 -0.87027896 2.06661283 0 0 Z " fill="#E0A643" transform="translate(136,47)"/>
<path d="M0 0 C1.32 0.33 2.64 0.66 4 1 C3.30810141 4.9477498 1.44174762 8.02209548 -0.52734375 11.48046875 C-0.87632217 12.09392654 -1.2253006 12.70738434 -1.58485413 13.33943176 C-2.32133878 14.63089945 -3.06027875 15.92096965 -3.80151367 17.2097168 C-4.9371963 19.18697124 -6.06179718 21.17024154 -7.18554688 23.15429688 C-7.90298782 24.40923058 -8.62106495 25.66380084 -9.33984375 26.91796875 C-9.99331787 28.06031982 -10.64679199 29.2026709 -11.32006836 30.37963867 C-13 33 -13 33 -15 34 C-14.43703489 29.19730327 -13.02850861 25.58752142 -10.83984375 21.2890625 C-10.53051407 20.67606293 -10.22118439 20.06306335 -9.90248108 19.43148804 C-8.92166085 17.49207387 -7.92981374 15.55855427 -6.9375 13.625 C-6.2668389 12.30376039 -5.59690944 10.98214913 -4.92773438 9.66015625 C-3.29359525 6.43576275 -1.6495238 3.21655555 0 0 Z " fill="#FAF2E2" transform="translate(118,29)"/>
<path d="M0 0 C-0.07855962 2.68084701 -0.47832848 4.44686137 -2.34375 6.42480469 C-4.18716771 7.97180921 -6.0734008 9.43288349 -8 10.875 C-8.67828857 11.39803711 -9.35657715 11.92107422 -10.05541992 12.45996094 C-11.40849709 13.50220259 -12.7654521 14.53943161 -14.12646484 15.57128906 C-16.55492307 17.42317042 -18.93011271 19.33941118 -21.3125 21.25 C-24.75 24 -24.75 24 -27 24 C-26.15856154 19.22419929 -23.10536324 17.18049289 -19.5 14.25 C-18.22189528 13.18841551 -16.94455236 12.12591318 -15.66796875 11.0625 C-15.04196777 10.54429688 -14.4159668 10.02609375 -13.77099609 9.4921875 C-10.67126537 6.88044857 -7.72117254 4.10481241 -4.76953125 1.328125 C-3 0 -3 0 0 0 Z " fill="#FBEED8" transform="translate(136,45)"/>
<path d="M0 0 C0.66 0 1.32 0 2 0 C2.70004335 2.8933122 3.3853242 5.78883001 4.0625 8.6875 C4.26166016 9.50412109 4.46082031 10.32074219 4.66601562 11.16210938 C5.64631933 15.41009212 6.38415975 18.72564505 5 23 C2.36 23 -0.28 23 -3 23 C-3.33 23.66 -3.66 24.32 -4 25 C-4 24.01 -4 23.02 -4 22 C-1.36 22 1.28 22 4 22 C4 21.34 4 20.68 4 20 C3.05125 19.87625 2.1025 19.7525 1.125 19.625 C-2 19 -2 19 -4 17 C-4 15.68 -4 14.36 -4 13 C-2.02 13 -0.04 13 2 13 C1.505 12.319375 1.01 11.63875 0.5 10.9375 C-1.31428223 7.38453064 -1.30304067 4.9395287 -1 1 C-0.67 0.67 -0.34 0.34 0 0 Z " fill="#66758A" transform="translate(12,88)"/>
<path d="M0 0 C7.26 0 14.52 0 22 0 C22.33 1.65 22.66 3.3 23 5 C20.29172212 5.30460586 17.58890259 5.56923077 14.875 5.8125 C14.11445312 5.90208984 13.35390625 5.99167969 12.5703125 6.08398438 C8.31997257 6.43207256 5.82568746 6.33555385 2.4453125 3.57421875 C0 1 0 1 0 0 Z " fill="#A6B181" transform="translate(57,129)"/>
<path d="M0 0 C0.33 0.66 0.66 1.32 1 2 C1.99 1.67 2.98 1.34 4 1 C2.68231441 10.22379914 -1.70451481 17.85855714 -6 26 C-6.99 26 -7.98 26 -9 26 C-9.66 26.33 -10.32 26.66 -11 27 C-9.959603 24.13890826 -8.81675075 21.70932877 -7.1875 19.125 C-3.71747034 13.27178017 -2.02692381 6.45458934 0 0 Z " fill="#363A55" transform="translate(155,88)"/>
<path d="M0 0 C1.32 0 2.64 0 4 0 C3.49492055 13.13206569 1.92739681 26.00503016 0 39 C-0.33 39 -0.66 39 -1 39 C-1.13274757 25.96123872 -0.7680946 13.0164602 0 0 Z " fill="#FDF7ED" transform="translate(96,21)"/>
<path d="M0 0 C0 0.99 0 1.98 0 3 C-2.41429769 3.84080019 -4.83103993 4.67281402 -7.25 5.5 C-8.27287109 5.85771484 -8.27287109 5.85771484 -9.31640625 6.22265625 C-12.76413003 7.39421287 -15.31702904 8 -19 8 C-20.4606285 5.35261084 -21 4.10551666 -21 1 C-18.25008168 0.83188272 -15.50007888 0.6654519 -12.75 0.5 C-11.97269531 0.45230469 -11.19539063 0.40460938 -10.39453125 0.35546875 C-9.26337891 0.28779297 -9.26337891 0.28779297 -8.109375 0.21875 C-7.41811523 0.17685547 -6.72685547 0.13496094 -6.01464844 0.09179688 C-4.01161035 0.00052902 -2.0051163 0 0 0 Z " fill="#304563" transform="translate(81,191)"/>
<path d="M0 0 C5.28 0 10.56 0 16 0 C11.425536 2.287232 6.75895592 4.13779986 2 6 C1.23300781 6.30550781 0.46601563 6.61101562 -0.32421875 6.92578125 C-3.35499458 8.10783985 -5.71717017 9 -9 9 C-7.549046 5.17475764 -5.61818068 3.80909034 -2 2 C-1.34 2 -0.68 2 0 2 C0 1.34 0 0.68 0 0 Z " fill="#E2A53F" transform="translate(141,58)"/>
<path d="M0 0 C0 1.65 0 3.3 0 5 C-13.6332574 9.59225513 -13.6332574 9.59225513 -20 9 C-16.74549776 5.17309787 -13.59344906 3.84580115 -8.875 2.25 C-7.01488281 1.60804687 -7.01488281 1.60804687 -5.1171875 0.953125 C-2 0 -2 0 0 0 Z " fill="#F9F1E4" transform="translate(159,58)"/>
<path d="M0 0 C7.72422049 0.66257422 15.34800303 1.76464626 23 3 C23 3.99 23 4.98 23 6 C14.37603795 6.48661855 7.76199333 5.92480024 0 2 C0 1.34 0 0.68 0 0 Z " fill="#233958" transform="translate(106,194)"/>
<path d="M0 0 C-0.33 0.33 -0.66 0.66 -1 1 C0.32 1.66 1.64 2.32 3 3 C-11.54817014 6.79517482 -26.06630591 6.30692141 -41 6 C-41 5.67 -41 5.34 -41 5 C-28.625 4.505 -28.625 4.505 -16 4 C-16 3.67 -16 3.34 -16 3 C-13.71068726 2.30364247 -11.4191243 1.61765623 -9.125 0.9375 C-8.47402344 0.73833984 -7.82304688 0.53917969 -7.15234375 0.33398438 C-2.2265625 -1.11328125 -2.2265625 -1.11328125 0 0 Z " fill="#EFBE6B" transform="translate(132,72)"/>
<path d="M0 0 C0.66 0.33 1.32 0.66 2 1 C0.68 1.99 -0.64 2.98 -2 4 C-0.35 4 1.3 4 3 4 C2.67 4.66 2.34 5.32 2 6 C-0.33247815 6.62852934 -2.69291467 7.15535246 -5.0625 7.625 C-6.35285156 7.88539063 -7.64320312 8.14578125 -8.97265625 8.4140625 C-9.97167969 8.60742188 -10.97070312 8.80078125 -12 9 C-12 9.66 -12 10.32 -12 11 C-12.66 11 -13.32 11 -14 11 C-14 10.01 -14 9.02 -14 8 C-16.64 8 -19.28 8 -22 8 C-22 7.67 -22 7.34 -22 7 C-20.906875 6.938125 -19.81375 6.87625 -18.6875 6.8125 C-13.81494863 6.22953403 -9.79928353 4.28202191 -5.41796875 2.15625 C-3 1 -3 1 0 0 Z " fill="#4A5C76" transform="translate(108,179)"/>
<path d="M0 0 C3.96 0.33 7.92 0.66 12 1 C12 2.32 12 3.64 12 5 C8.32589215 6.17571451 4.83070817 6.07366746 1 6 C0.67 6.99 0.34 7.98 0 9 C-0.66 8.67 -1.32 8.34 -2 8 C-1.34 5.36 -0.68 2.72 0 0 Z " fill="#293F5D" transform="translate(168,114)"/>
<path d="M0 0 C0.33 0 0.66 0 1 0 C1.32046076 8.01151891 1.52289383 18.21565925 -3 25 C-3.66 25 -4.32 25 -5 25 C-4.74310796 22.14396497 -4.46996134 19.29102682 -4.1875 16.4375 C-4.11724609 15.63763672 -4.04699219 14.83777344 -3.97460938 14.01367188 C-3.44139161 8.78813774 -2.31324794 4.72156087 0 0 Z " fill="#263C5A" transform="translate(161,65)"/>
<path d="M0 0 C5.28 0.33 10.56 0.66 16 1 C16 3.31 16 5.62 16 8 C12.21193549 7.39363716 9.17104296 6.28838544 5.75 4.5625 C4.87859375 4.13066406 4.0071875 3.69882813 3.109375 3.25390625 C1 2 1 2 0 0 Z " fill="#919E6E" transform="translate(64,135)"/>
<path d="M0 0 C0 0.99 0 1.98 0 3 C-1.7015625 3.2165625 -1.7015625 3.2165625 -3.4375 3.4375 C-6.80777201 3.61171478 -6.80777201 3.61171478 -8 5 C-9.66617115 5.04063832 -11.33388095 5.042721 -13 5 C-12.67 4.01 -12.34 3.02 -12 2 C-12.825 2.165 -13.65 2.33 -14.5 2.5 C-18.41272317 3.05896045 -22.05183173 3.06807187 -26 3 C-18.26135818 -1.23987948 -8.56725393 -0.11917355 0 0 Z " fill="#F9E8CA" transform="translate(157,73)"/>
<path d="M0 0 C0.7734375 0.4640625 0.7734375 0.4640625 1.5625 0.9375 C0.9025 0.9375 0.2425 0.9375 -0.4375 0.9375 C0.38451984 3.12867773 0.38451984 3.12867773 2.62890625 3.7890625 C3.45261719 4.04429687 4.27632812 4.29953125 5.125 4.5625 C5.95128906 4.82289063 6.77757813 5.08328125 7.62890625 5.3515625 C8.26699219 5.54492188 8.90507813 5.73828125 9.5625 5.9375 C5.8032927 7.3371094 3.45766909 6.50112859 -0.25 5.1875 C-1.30316406 4.81625 -2.35632813 4.445 -3.44140625 4.0625 C-6.8305105 2.78992891 -10.14229165 1.43532198 -13.4375 -0.0625 C-9.05695464 -3.04127084 -4.6535871 -2.02848668 0 0 Z " fill="#55657E" transform="translate(106.4375,193.0625)"/>
<path d="M0 0 C-0.32174762 3.20638144 -0.70371468 4.68954964 -2.9609375 7.0546875 C-3.75757813 7.65539063 -4.55421875 8.25609375 -5.375 8.875 C-6.56222656 9.79925781 -6.56222656 9.79925781 -7.7734375 10.7421875 C-8.50820312 11.15726563 -9.24296875 11.57234375 -10 12 C-10.99 11.67 -11.98 11.34 -13 11 C-11.40559179 9.15730683 -9.80058539 7.32621907 -8.1875 5.5 C-7.73568359 4.97535156 -7.28386719 4.45070313 -6.81835938 3.91015625 C-3.33984375 0 -3.33984375 0 0 0 Z " fill="#F4EBDB" transform="translate(136,45)"/>
<path d="M0 0 C0.66 0.33 1.32 0.66 2 1 C-1.62180587 6.07052822 -5.20667077 9.34635135 -10.75 12.25 C-11.73484375 12.77078125 -12.7196875 13.2915625 -13.734375 13.828125 C-14.85585937 14.40820312 -14.85585937 14.40820312 -16 15 C-14.45949368 10.62332974 -11.0346436 8.44937276 -7.4375 5.8125 C-6.2484187 4.92355045 -5.05960284 4.03424569 -3.87109375 3.14453125 C-2.92363281 2.43683594 -1.97617188 1.72914062 -1 1 C-0.67 0.67 -0.34 0.34 0 0 Z " fill="#EBAF4A" transform="translate(127,55)"/>
<path d="M0 0 C0.33 0.99 0.66 1.98 1 3 C-0.55283125 4.63424183 -2.1176881 6.25706248 -3.6875 7.875 C-4.99267578 9.23238281 -4.99267578 9.23238281 -6.32421875 10.6171875 C-8.87943979 12.89263982 -10.76901814 13.98704352 -14 15 C-11.50932871 9.3959896 -8.30667003 5.99350617 -3 3 C-1.24850835 1.41754725 -1.24850835 1.41754725 0 0 Z " fill="#283D5B" transform="translate(138,125)"/>
<path d="M0 0 C4.38332057 0.82187261 8.67940177 1.90154282 13 3 C12.67 3.99 12.34 4.98 12 6 C7.05 5.67 2.1 5.34 -3 5 C-2.01 3.35 -1.02 1.7 0 0 Z " fill="#D7DAE0" transform="translate(142,162)"/>
<path d="M0 0 C0.33 0 0.66 0 1 0 C0.98839844 1.13179687 0.97679688 2.26359375 0.96484375 3.4296875 C0.95546546 4.91145669 0.9463653 6.39322765 0.9375 7.875 C0.92912109 8.62136719 0.92074219 9.36773437 0.91210938 10.13671875 C0.79311916 14.19845578 0.79311916 14.19845578 2 18 C2.35919321 19.99551782 2.69496569 21.99548879 3 24 C0.69 23.67 -1.62 23.34 -4 23 C-4 20.36 -4 17.72 -4 15 C-3.01 15.495 -3.01 15.495 -2 16 C-1.34 10.72 -0.68 5.44 0 0 Z " fill="#F1C881" transform="translate(98,38)"/>
<path d="M0 0 C0.33 0.66 0.66 1.32 1 2 C1.66 2.33 2.32 2.66 3 3 C-1.455 10.425 -1.455 10.425 -6 18 C-7.2281827 13.08726918 -5.83396443 10.95926741 -3.5625 6.75 C-3.22412109 6.1003125 -2.88574219 5.450625 -2.53710938 4.78125 C-1.70213113 3.18185506 -0.85246886 1.59014141 0 0 Z " fill="#F9E6C6" transform="translate(110,45)"/>
<path d="M0 0 C0.99 0.33 1.98 0.66 3 1 C1.58654524 4.41584899 -0.03347106 5.86780732 -3 8 C-3.99 9.485 -3.99 9.485 -5 11 C-5 10.34 -5 9.68 -5 9 C-5.99 8.67 -6.98 8.34 -8 8 C-8 7.34 -8 6.68 -8 6 C-8.99 6 -9.98 6 -11 6 C-10.67 5.01 -10.34 4.02 -10 3 C-9.67 3.33 -9.34 3.66 -9 4 C-8.34 3.34 -7.68 2.68 -7 2 C-7 3.65 -7 5.3 -7 7 C-4.09197539 4.78071806 -2.04687238 3.07030857 0 0 Z " fill="#EDB75B" transform="translate(113,58)"/>
<path d="M0 0 C2 3.75 2 3.75 2 6 C-4.625 6.25 -4.625 6.25 -8 4 C-8 3.01 -8 2.02 -8 1 C-5.36 0.67 -2.72 0.34 0 0 Z " fill="#2F4462" transform="translate(17,110)"/>
<path d="M0 0 C0.66 0.99 1.32 1.98 2 3 C2.33 2.34 2.66 1.68 3 1 C3.99 1.33 4.98 1.66 6 2 C5.34 2 4.68 2 4 2 C3.86722656 2.80824219 3.73445312 3.61648437 3.59765625 4.44921875 C3.42105469 5.51785156 3.24445313 6.58648437 3.0625 7.6875 C2.88847656 8.74324219 2.71445313 9.79898438 2.53515625 10.88671875 C2.06832879 13.60249604 1.55577384 16.30124235 1 19 C0.67 19 0.34 19 0 19 C0 15.7 0 12.4 0 9 C-0.66 9.99 -1.32 10.98 -2 12 C-1.44687265 7.97007218 -0.8441938 3.97977076 0 0 Z " fill="#D0D4DA" transform="translate(172,83)"/>
<path d="M0 0 C0.66 1.65 1.32 3.3 2 5 C-1.63 5 -5.26 5 -9 5 C-8.01 4.34 -7.02 3.68 -6 3 C-8.31 2.67 -10.62 2.34 -13 2 C-13 1.67 -13 1.34 -13 1 C-11.58366664 0.83052421 -10.16691467 0.66454493 -8.75 0.5 C-7.56664062 0.36078125 -7.56664062 0.36078125 -6.359375 0.21875 C-4 0 -4 0 0 0 Z " fill="#CDD1D8" transform="translate(39,156)"/>
<path d="M0 0 C0.66 0 1.32 0 2 0 C2.2954439 5.02254631 1.98514628 7.89542386 -1 12 C1.31 12 3.62 12 6 12 C5.67 12.99 5.34 13.98 5 15 C5 14.34 5 13.68 5 13 C2.36 13.33 -0.28 13.66 -3 14 C-2.69024532 12.22868439 -2.37709575 10.45796222 -2.0625 8.6875 C-1.88847656 7.70136719 -1.71445313 6.71523437 -1.53515625 5.69921875 C-1 3 -1 3 0 0 Z " fill="#748194" transform="translate(176,85)"/>
<path d="M0 0 C0.99 0.66 1.98 1.32 3 2 C1.8545847 7.1103144 0.54521255 11.37234081 -2 16 C-2.33 16 -2.66 16 -3 16 C-2.57910004 10.39538469 -2.08386889 5.27913453 0 0 Z " fill="#F9E9CC" transform="translate(102,45)"/>
<path d="M0 0 C2.97 0.495 2.97 0.495 6 1 C6.33 2.32 6.66 3.64 7 5 C9.64 5 12.28 5 15 5 C11.5980513 7.09350689 8.94727588 7.17942163 5 7 C5 6.34 5 5.68 5 5 C4.505 5.165 4.01 5.33 3.5 5.5 C-0.03444089 6.20688818 -3.39690701 6.06005155 -7 6 C-7 5.67 -7 5.34 -7 5 C-3.7 4.34 -0.4 3.68 3 3 C2.01 2.01 1.02 1.02 0 0 Z " fill="#6A788D" transform="translate(76,186)"/>
<path d="M0 0 C6.48979592 0.48979592 6.48979592 0.48979592 8.9375 2.9375 C10 5 10 5 10 7 C4.06 5.515 4.06 5.515 -2 4 C-1.34 2.68 -0.68 1.36 0 0 Z " fill="#C2C7D0" transform="translate(17,134)"/>
<path d="M0 0 C0.66 0.33 1.32 0.66 2 1 C-2.95 5.95 -7.9 10.9 -13 16 C-13 11.08924079 -9.30469813 8.39044878 -6 5 C-4.05397986 3.23549584 -2.07285289 1.6178364 0 0 Z " fill="#4E5F78" transform="translate(55,13)"/>
<path d="M0 0 C1.32 0 2.64 0 4 0 C7 3.21428571 7 3.21428571 7 6 C3.37 5.67 -0.26 5.34 -4 5 C-2.25 2.5 -2.25 2.5 0 0 Z " fill="#CDD2D9" transform="translate(44,166)"/>
<path d="M0 0 C0.66 0.33 1.32 0.66 2 1 C1.21625 1.7425 0.4325 2.485 -0.375 3.25 C-3.01578626 5.72703099 -3.01578626 5.72703099 -4.0625 8.25 C-5 10 -5 10 -7.125 10.75 C-8.053125 10.87375 -8.053125 10.87375 -9 11 C-9 10.34 -9 9.68 -9 9 C-9.66 8.34 -10.32 7.68 -11 7 C-10.28972656 6.57847656 -9.57945313 6.15695313 -8.84765625 5.72265625 C-7.92855469 5.17480469 -7.00945312 4.62695312 -6.0625 4.0625 C-5.14597656 3.51722656 -4.22945313 2.97195312 -3.28515625 2.41015625 C-1.11587323 1.19267827 -1.11587323 1.19267827 0 0 Z " fill="#413952" transform="translate(128,132)"/>
<path d="M0 0 C0.66 0.33 1.32 0.66 2 1 C1.67 1.33 1.34 1.66 1 2 C1.66 2.66 2.32 3.32 3 4 C1.56570999 4.67354499 0.12742943 5.33859701 -1.3125 6 C-2.51326172 6.556875 -2.51326172 6.556875 -3.73828125 7.125 C-6 8 -6 8 -9 8 C-7.83917375 4.51752126 -7.09067524 4.11180756 -4.0625 2.25 C-3.35222656 1.80140625 -2.64195313 1.3528125 -1.91015625 0.890625 C-1.27980469 0.59671875 -0.64945313 0.3028125 0 0 Z " fill="#F9E8CA" transform="translate(120,64)"/>
<path d="M0 0 C1.32 0 2.64 0 4 0 C3.67 5.61 3.34 11.22 3 17 C2.67 17 2.34 17 2 17 C1.67 14.03 1.34 11.06 1 8 C0.67 8 0.34 8 0 8 C0 5.36 0 2.72 0 0 Z " fill="#F9EDD7" transform="translate(96,21)"/>
<path d="M0 0 C0.66 0.33 1.32 0.66 2 1 C-2.62 5.62 -7.24 10.24 -12 15 C-12 10.09687565 -8.29800369 7.38658643 -5 4 C-3.37458956 2.61667196 -1.72614587 1.25537882 0 0 Z " fill="#4D5E78" transform="translate(65,24)"/>
<path d="M0 0 C-2.01177181 2.01177181 -5.92477333 1.43663935 -8.65234375 1.62109375 C-11.18512773 1.79485724 -11.18512773 1.79485724 -13 4 C-10.36 4.33 -7.72 4.66 -5 5 C-5 5.33 -5 5.66 -5 6 C-8.63 6 -12.26 6 -16 6 C-14 1 -14 1 -13 0 C-11.1943106 -0.26085401 -9.37942194 -0.45961049 -7.5625 -0.625 C-6.07943359 -0.76808594 -6.07943359 -0.76808594 -4.56640625 -0.9140625 C-2 -1 -2 -1 0 0 Z " fill="#BBC1CB" transform="translate(172,141)"/>
<path d="M0 0 C2.875 -0.125 2.875 -0.125 6 0 C8 2 8 2 8 5 C5.125 5.125 5.125 5.125 2 5 C1.34 4.34 0.68 3.68 0 3 C0 2.01 0 1.02 0 0 Z " fill="#304462" transform="translate(8,102)"/>
<path d="M0 0 C1.93166016 0.01740234 1.93166016 0.01740234 3.90234375 0.03515625 C5.19269531 0.04417969 6.48304688 0.05320313 7.8125 0.0625 C8.81152344 0.07410156 9.81054688 0.08570313 10.83984375 0.09765625 C10.50984375 0.75765625 10.17984375 1.41765625 9.83984375 2.09765625 C7.1171875 2.51171875 7.1171875 2.51171875 3.77734375 2.72265625 C2.67261719 2.79742187 1.56789062 2.8721875 0.4296875 2.94921875 C-0.42496094 2.99820313 -1.27960938 3.0471875 -2.16015625 3.09765625 C0.80984375 3.59265625 0.80984375 3.59265625 3.83984375 4.09765625 C3.83984375 4.42765625 3.83984375 4.75765625 3.83984375 5.09765625 C0.86984375 5.09765625 -2.10015625 5.09765625 -5.16015625 5.09765625 C-3.91599555 0.12101346 -3.91599555 0.12101346 0 0 Z " fill="#B7BDC7" transform="translate(154.16015625,151.90234375)"/>
<path d="M0 0 C-0.33 1.32 -0.66 2.64 -1 4 C-3.31 4.33 -5.62 4.66 -8 5 C-8 3.68 -8 2.36 -8 1 C-5.07175348 0.02391783 -3.04386724 -0.08226668 0 0 Z " fill="#283D5C" transform="translate(181,98)"/>
<path d="M0 0 C0.66 0 1.32 0 2 0 C3.17571451 3.67410785 3.07366746 7.16929183 3 11 C1 9.9375 1 9.9375 -1 8 C-1.3125 4.375 -1.3125 4.375 -1 1 C-0.67 0.67 -0.34 0.34 0 0 Z " fill="#54657D" transform="translate(12,88)"/>
<path d="M0 0 C0.66 0.33 1.32 0.66 2 1 C0.875 3.4375 0.875 3.4375 -1 6 C-4 6.9375 -4 6.9375 -7 7 C-7.99 6.34 -8.98 5.68 -10 5 C-7 3 -7 3 -3 3 C-3 2.34 -3 1.68 -3 1 C-2.01 0.67 -1.02 0.34 0 0 Z " fill="#ECB354" transform="translate(133,62)"/>
<path d="M0 0 C3.77300358 1.0197307 4.80206144 1.65872662 6.8125 5.125 C7.204375 6.07375 7.59625 7.0225 8 8 C6.68 8 5.36 8 4 8 C0 2.88888889 0 2.88888889 0 0 Z " fill="#2A405B" transform="translate(42,114)"/>
<path d="M0 0 C5.28 0.33 10.56 0.66 16 1 C16 3.31 16 5.62 16 8 C14.68 8 13.36 8 12 8 C12 7.01 12 6.02 12 5 C12.99 5 13.98 5 15 5 C15 4.01 15 3.02 15 2 C10.38 2 5.76 2 1 2 C0.67 1.34 0.34 0.68 0 0 Z " fill="#B5BDA9" transform="translate(64,135)"/>
<path d="M0 0 C0.66 0.33 1.32 0.66 2 1 C1.42655063 3.86724686 1.1385485 4.8614515 -1 7 C-1.66 7 -2.32 7 -3 7 C-4.37310707 8.29233607 -5.71034824 9.62437146 -7 11 C-7.66 10.67 -8.32 10.34 -9 10 C-6.03 6.7 -3.06 3.4 0 0 Z " fill="#383853" transform="translate(140,120)"/>
<path d="M0 0 C0.66 0.33 1.32 0.66 2 1 C-1.63 4.63 -5.26 8.26 -9 12 C-9.66 11.67 -10.32 11.34 -11 11 C-9.92173635 9.72486237 -8.83714481 8.45507431 -7.75 7.1875 C-7.14671875 6.47980469 -6.5434375 5.77210937 -5.921875 5.04296875 C-4.07629602 3.08110329 -2.20054668 1.54330375 0 0 Z " fill="#CCAB3C" transform="translate(69,28)"/>
<path d="M0 0 C-1.32 0.99 -2.64 1.98 -4 3 C-2.35 3 -0.7 3 1 3 C0.67 3.66 0.34 4.32 0 5 C-2.32156597 5.40729228 -4.6568787 5.74438677 -7 6 C-6.67 5.01 -6.34 4.02 -6 3 C-7.32 2.67 -8.64 2.34 -10 2 C-8.71211992 1.46987262 -7.41953322 0.9511671 -6.125 0.4375 C-5.40570313 0.14746094 -4.68640625 -0.14257812 -3.9453125 -0.44140625 C-2 -1 -2 -1 0 0 Z " fill="#748295" transform="translate(110,180)"/>
<path d="M0 0 C-0.495 0.474375 -0.99 0.94875 -1.5 1.4375 C-3.11542197 2.75923698 -3.11542197 2.75923698 -3 4 C-4.98 4 -6.96 4 -9 4 C-9 2.68 -9 1.36 -9 0 C-2.25 -1.125 -2.25 -1.125 0 0 Z " fill="#BAC0CA" transform="translate(178,120)"/>
<path d="M0 0 C0.33 0.66 0.66 1.32 1 2 C1.99 1.67 2.98 1.34 4 1 C3.34 3.97 2.68 6.94 2 10 C1.34 9.01 0.68 8.02 0 7 C-0.99 7.495 -0.99 7.495 -2 8 C-1.34 5.36 -0.68 2.72 0 0 Z " fill="#424A64" transform="translate(155,88)"/>
<path d="M0 0 C0 0.99 0 1.98 0 3 C-3.63 3 -7.26 3 -11 3 C-10.67 2.34 -10.34 1.68 -10 1 C-6.6322481 0.06451336 -3.4815554 -0.09947301 0 0 Z " fill="#FEFEFD" transform="translate(157,73)"/>
<path d="M0 0 C0.66 0.33 1.32 0.66 2 1 C1.01 1.66 0.02 2.32 -1 3 C1.64 3.99 4.28 4.98 7 6 C2.93890631 7.01527342 2.33033162 7.05430484 -1.25 5.5625 C-1.95640625 5.27503906 -2.6628125 4.98757812 -3.390625 4.69140625 C-3.92171875 4.46324219 -4.4528125 4.23507813 -5 4 C-5 3.34 -5 2.68 -5 2 C-2.625 0.9375 -2.625 0.9375 0 0 Z " fill="#B1B7C3" transform="translate(101,186)"/>
<path d="M0 0 C0.66 0.33 1.32 0.66 2 1 C0.61990379 4.33523252 -0.84950652 6.18607951 -4 8 C-4.99 7.67 -5.98 7.34 -7 7 C-4.69 4.69 -2.38 2.38 0 0 Z " fill="#FCF7EF" transform="translate(134,46)"/>
<path d="M0 0 C0.33 0.99 0.66 1.98 1 3 C-5.28571429 5.42857143 -5.28571429 5.42857143 -9 4 C-6.02819057 2.10134397 -3.48539917 0.64544429 0 0 Z " fill="#EAAA3E" transform="translate(125,67)"/>
<path d="M0 0 C-3.465 1.485 -3.465 1.485 -7 3 C-6.67 3.66 -6.34 4.32 -6 5 C-7.32 5.33 -8.64 5.66 -10 6 C-9.67 4.35 -9.34 2.7 -9 1 C-2.25 -1.125 -2.25 -1.125 0 0 Z " fill="#B8BEC8" transform="translate(174,130)"/>
<path d="M0 0 C5.75 -0.125 5.75 -0.125 8 1 C8 1.66 8 2.32 8 3 C5.36 3 2.72 3 0 3 C0 2.01 0 1.02 0 0 Z " fill="#B3BAC5" transform="translate(171,112)"/>
<path d="M0 0 C0.53625 0.391875 1.0725 0.78375 1.625 1.1875 C-1.81950737 3.48383824 -4.31312283 3.72766485 -8.375 4.1875 C-8.375 3.5275 -8.375 2.8675 -8.375 2.1875 C-2.95961538 -1.0125 -2.95961538 -1.0125 0 0 Z " fill="#F7E1BC" transform="translate(122.375,71.8125)"/>
<path d="M0 0 C0.66 0 1.32 0 2 0 C2.1875 3.375 2.1875 3.375 2 7 C1.01 7.66 0.02 8.32 -1 9 C-0.67 6.03 -0.34 3.06 0 0 Z " fill="#344865" transform="translate(176,85)"/>
<path d="M0 0 C0.66 0.33 1.32 0.66 2 1 C1.67 1.33 1.34 1.66 1 2 C1.99 2.66 2.98 3.32 4 4 C1.69 4.33 -0.62 4.66 -3 5 C-3.33 4.01 -3.66 3.02 -4 2 C-2.125 0.9375 -2.125 0.9375 0 0 Z " fill="#F9E7C9" transform="translate(139,64)"/>
<path d="M0 0 C0.33 0 0.66 0 1 0 C1.29296875 6.0546875 1.29296875 6.0546875 1 8 C0.01 8.66 -0.98 9.32 -2 10 C-1.85950482 8.52031676 -1.71245174 7.04125484 -1.5625 5.5625 C-1.48128906 4.73878906 -1.40007812 3.91507812 -1.31640625 3.06640625 C-1 1 -1 1 0 0 Z " fill="#1B3354" transform="translate(161,65)"/>
<path d="M0 0 C0.99 0.66 1.98 1.32 3 2 C-1.75 6 -1.75 6 -4 6 C-3.6875 4.125 -3.6875 4.125 -3 2 C-2.01 1.34 -1.02 0.68 0 0 Z " fill="#F9E8CC" transform="translate(113,63)"/>
<path d="M0 0 C0.33 0.66 0.66 1.32 1 2 C1.66 2.33 2.32 2.66 3 3 C1.625 5.5 1.625 5.5 0 8 C-0.66 8 -1.32 8 -2 8 C-1.125 2.25 -1.125 2.25 0 0 Z " fill="#FAECD4" transform="translate(110,45)"/>
<path d="M0 0 C2.31 0.33 4.62 0.66 7 1 C5.875 2.5 5.875 2.5 4 4 C0.8125 4.1875 0.8125 4.1875 -2 4 C-1.34 2.68 -0.68 1.36 0 0 Z " fill="#D8DCE1" transform="translate(17,134)"/>
<path d="M0 0 C0.6875 1.75 0.6875 1.75 1 4 C-0.3125 6.25 -0.3125 6.25 -2 8 C-2.66 8 -3.32 8 -4 8 C-3.40072174 4.64404172 -2.15377564 2.62198774 0 0 Z " fill="#FAECD5" transform="translate(110,57)"/>
<path d="M0 0 C0.68359375 1.796875 0.68359375 1.796875 1 4 C-0.21484375 5.703125 -0.21484375 5.703125 -1.9375 7.25 C-2.50339844 7.77078125 -3.06929688 8.2915625 -3.65234375 8.828125 C-4.09707031 9.21484375 -4.54179688 9.6015625 -5 10 C-5.66 9.67 -6.32 9.34 -7 9 C-6.57847656 8.51789062 -6.15695313 8.03578125 -5.72265625 7.5390625 C-5.17480469 6.90742187 -4.62695312 6.27578125 -4.0625 5.625 C-3.51722656 4.99851562 -2.97195312 4.37203125 -2.41015625 3.7265625 C-0.93041376 2.04367666 -0.93041376 2.04367666 0 0 Z " fill="#E6B156" transform="translate(130,38)"/>
<path d="M0 0 C0.99 0 1.98 0 3 0 C2.875 1.875 2.875 1.875 2 4 C-1.0625 5.25 -1.0625 5.25 -4 6 C-2.1875 3 -2.1875 3 0 0 Z " fill="#3D506C" transform="translate(153,143)"/>
<path d="M0 0 C0.33 0 0.66 0 1 0 C1.66 2.64 2.32 5.28 3 8 C2.34 8 1.68 8 1 8 C0.34 8.66 -0.32 9.32 -1 10 C-1.33 8.35 -1.66 6.7 -2 5 C-1.67 5 -1.34 5 -1 5 C-0.67 3.35 -0.34 1.7 0 0 Z " fill="#435669" transform="translate(34,89)"/>
<path d="M0 0 C1.32 0 2.64 0 4 0 C3.34 1.65 2.68 3.3 2 5 C1.01 5 0.02 5 -1 5 C-1 2 -1 2 0 0 Z " fill="#3B4560" transform="translate(151,101)"/>
<path d="M0 0 C0.66 0.33 1.32 0.66 2 1 C1.67 1.33 1.34 1.66 1 2 C1.66 2.66 2.32 3.32 3 4 C1.02 4.66 -0.96 5.32 -3 6 C-3 4.68 -3 3.36 -3 2 C-2.01 1.34 -1.02 0.68 0 0 Z " fill="#F8E3BF" transform="translate(120,64)"/>
<path d="M0 0 C0.33 0 0.66 0 1 0 C1.1875 3.375 1.1875 3.375 1 7 C0.01 7.66 -0.98 8.32 -2 9 C-2.20140476 5.37471432 -1.85776765 3.13498292 0 0 Z " fill="#FDF7ED" transform="translate(105,39)"/>
</svg>
